<mxfile host="app.diagrams.net" agent="Mozilla/5.0 (X11; Ubuntu; Linux x86_64; rv:135.0) Gecko/20100101 Firefox/135.0" version="26.0.14">
  <diagram name="Page-1" id="UNhHM_RZ33HJirFBLpHo">
    <mxGraphModel dx="1834" dy="1315" grid="0" gridSize="10" guides="1" tooltips="1" connect="1" arrows="1" fold="1" page="0" pageScale="1" pageWidth="850" pageHeight="1100" math="0" shadow="0">
      <root>
        <mxCell id="0" />
        <mxCell id="1" parent="0" />
        <mxCell id="FN_75RV-24mMsgmvzP0c-2" value="" style="whiteSpace=wrap;html=1;aspect=fixed;fillColor=#fff2cc;strokeColor=#d6b656;" parent="1" vertex="1">
          <mxGeometry x="-16" y="-17" width="257" height="257" as="geometry" />
        </mxCell>
        <mxCell id="FN_75RV-24mMsgmvzP0c-3" value="obj1 &#39;s reference/address&amp;nbsp; and local var" style="rounded=1;whiteSpace=wrap;html=1;" parent="1" vertex="1">
          <mxGeometry x="-2" y="188" width="230" height="39" as="geometry" />
        </mxCell>
        <mxCell id="FN_75RV-24mMsgmvzP0c-4" value="&lt;div&gt;next method call (in execution flow)&lt;/div&gt;&lt;div&gt;whether recursive or non recursive&lt;/div&gt;" style="rounded=1;whiteSpace=wrap;html=1;" parent="1" vertex="1">
          <mxGeometry x="-2" y="138" width="230" height="39" as="geometry" />
        </mxCell>
        <mxCell id="FN_75RV-24mMsgmvzP0c-5" value="function&#39;s local variables" style="rounded=1;whiteSpace=wrap;html=1;" parent="1" vertex="1">
          <mxGeometry x="-2" y="88" width="230" height="39" as="geometry" />
        </mxCell>
        <mxCell id="FN_75RV-24mMsgmvzP0c-6" value="function&#39;s local variables" style="rounded=1;whiteSpace=wrap;html=1;" parent="1" vertex="1">
          <mxGeometry x="-2" y="42" width="230" height="39" as="geometry" />
        </mxCell>
        <mxCell id="FN_75RV-24mMsgmvzP0c-10" value="" style="endArrow=classic;html=1;rounded=0;fontSize=12;startSize=8;endSize=8;curved=1;exitX=0;exitY=0.75;exitDx=0;exitDy=0;" parent="1" source="FN_75RV-24mMsgmvzP0c-3" edge="1">
          <mxGeometry width="50" height="50" relative="1" as="geometry">
            <mxPoint x="-132" y="260" as="sourcePoint" />
            <mxPoint x="-40" y="217" as="targetPoint" />
          </mxGeometry>
        </mxCell>
        <mxCell id="FN_75RV-24mMsgmvzP0c-11" value="&lt;div&gt;main function call&lt;/div&gt;" style="rounded=1;whiteSpace=wrap;html=1;" parent="1" vertex="1">
          <mxGeometry x="-152" y="201" width="90" height="32" as="geometry" />
        </mxCell>
        <mxCell id="FN_75RV-24mMsgmvzP0c-12" value="" style="endArrow=classic;html=1;rounded=0;fontSize=12;startSize=8;endSize=8;curved=1;entryX=0.414;entryY=1.004;entryDx=0;entryDy=0;entryPerimeter=0;fillColor=#fff2cc;strokeColor=#d6b656;" parent="1" target="FN_75RV-24mMsgmvzP0c-2" edge="1">
          <mxGeometry width="50" height="50" relative="1" as="geometry">
            <mxPoint x="90" y="393" as="sourcePoint" />
            <mxPoint x="148" y="340" as="targetPoint" />
          </mxGeometry>
        </mxCell>
        <mxCell id="FN_75RV-24mMsgmvzP0c-13" value="Stack memory" style="rounded=1;whiteSpace=wrap;html=1;" parent="1" vertex="1">
          <mxGeometry x="30" y="394" width="121" height="31" as="geometry" />
        </mxCell>
        <mxCell id="FN_75RV-24mMsgmvzP0c-14" value="" style="endArrow=classic;html=1;rounded=0;fontSize=12;startSize=8;endSize=8;curved=1;entryX=0;entryY=0.5;entryDx=0;entryDy=0;" parent="1" target="FN_75RV-24mMsgmvzP0c-6" edge="1">
          <mxGeometry width="50" height="50" relative="1" as="geometry">
            <mxPoint x="-81" y="-88" as="sourcePoint" />
            <mxPoint x="-12" y="-130" as="targetPoint" />
          </mxGeometry>
        </mxCell>
        <mxCell id="FN_75RV-24mMsgmvzP0c-15" value="Stack Frames" style="rounded=1;whiteSpace=wrap;html=1;" parent="1" vertex="1">
          <mxGeometry x="-134" y="-120" width="125" height="29" as="geometry" />
        </mxCell>
        <mxCell id="FN_75RV-24mMsgmvzP0c-16" value="" style="endArrow=classic;html=1;rounded=0;fontSize=12;startSize=8;endSize=8;curved=1;entryX=0;entryY=0.5;entryDx=0;entryDy=0;" parent="1" source="FN_75RV-24mMsgmvzP0c-4" target="FN_75RV-24mMsgmvzP0c-5" edge="1">
          <mxGeometry width="50" height="50" relative="1" as="geometry">
            <mxPoint x="-95" y="140" as="sourcePoint" />
            <mxPoint x="-34" y="88" as="targetPoint" />
            <Array as="points">
              <mxPoint x="-53" y="152" />
              <mxPoint x="-62" y="125" />
            </Array>
          </mxGeometry>
        </mxCell>
        <mxCell id="FN_75RV-24mMsgmvzP0c-17" value="&lt;font style=&quot;font-size: 11px;&quot;&gt;subsequent method call&lt;/font&gt;" style="text;strokeColor=none;fillColor=none;html=1;align=center;verticalAlign=middle;whiteSpace=wrap;rounded=0;fontSize=16;" parent="1" vertex="1">
          <mxGeometry x="-136" y="108" width="104" height="30" as="geometry" />
        </mxCell>
        <mxCell id="FN_75RV-24mMsgmvzP0c-20" style="edgeStyle=none;curved=1;rounded=0;orthogonalLoop=1;jettySize=auto;html=1;exitX=0.5;exitY=0;exitDx=0;exitDy=0;fontSize=12;startSize=8;endSize=8;" parent="1" source="FN_75RV-24mMsgmvzP0c-2" target="FN_75RV-24mMsgmvzP0c-2" edge="1">
          <mxGeometry relative="1" as="geometry" />
        </mxCell>
        <mxCell id="FN_75RV-24mMsgmvzP0c-21" value="" style="rounded=1;whiteSpace=wrap;html=1;fillColor=#d5e8d4;strokeColor=#82b366;" parent="1" vertex="1">
          <mxGeometry x="407" y="19.5" width="475" height="176" as="geometry" />
        </mxCell>
        <mxCell id="FN_75RV-24mMsgmvzP0c-24" value="&lt;div&gt;{&lt;span style=&quot;white-space: pre;&quot;&gt;&#x9;&lt;/span&gt;&lt;span style=&quot;white-space: pre;&quot;&gt;&#x9;&lt;/span&gt;&lt;span style=&quot;white-space: pre;&quot;&gt;&#x9;&lt;/span&gt;&lt;span style=&quot;white-space: pre;&quot;&gt;&#x9;&lt;/span&gt;&lt;/div&gt;&lt;div&gt;property1=&quot;value1&quot;&lt;/div&gt;&lt;div&gt;function call()&lt;/div&gt;&lt;div&gt;property3=&quot;value3&quot;&lt;/div&gt;&lt;div&gt;&lt;span style=&quot;white-space: pre;&quot;&gt;&#x9;&lt;/span&gt;&lt;span style=&quot;white-space: pre;&quot;&gt;&#x9;&lt;/span&gt;&lt;span style=&quot;white-space: pre;&quot;&gt;&#x9;&lt;/span&gt;&lt;span style=&quot;white-space: pre;&quot;&gt;&#x9;&lt;/span&gt;}&lt;/div&gt;" style="text;strokeColor=none;fillColor=none;html=1;align=center;verticalAlign=middle;whiteSpace=wrap;rounded=0;fontSize=16;" parent="1" vertex="1">
          <mxGeometry x="478" y="97" width="103" height="30" as="geometry" />
        </mxCell>
        <mxCell id="FN_75RV-24mMsgmvzP0c-19" value="" style="endArrow=classic;html=1;rounded=0;fontSize=12;startSize=8;endSize=8;curved=1;" parent="1" edge="1">
          <mxGeometry width="50" height="50" relative="1" as="geometry">
            <mxPoint x="229" y="155" as="sourcePoint" />
            <mxPoint x="403" y="134" as="targetPoint" />
          </mxGeometry>
        </mxCell>
        <mxCell id="FN_75RV-24mMsgmvzP0c-25" value="" style="endArrow=classic;html=1;rounded=0;fontSize=12;startSize=8;endSize=8;curved=1;entryX=1;entryY=0.5;entryDx=0;entryDy=0;exitX=0;exitY=0.25;exitDx=0;exitDy=0;" parent="1" source="FN_75RV-24mMsgmvzP0c-24" target="FN_75RV-24mMsgmvzP0c-6" edge="1">
          <mxGeometry width="50" height="50" relative="1" as="geometry">
            <mxPoint x="379" y="109" as="sourcePoint" />
            <mxPoint x="374" y="-15" as="targetPoint" />
          </mxGeometry>
        </mxCell>
        <mxCell id="qqsWl-AhTRgnj3V0tEwA-1" value="&lt;div&gt;Heap memory&lt;/div&gt;" style="rounded=1;whiteSpace=wrap;html=1;" vertex="1" parent="1">
          <mxGeometry x="620" y="280" width="119" height="35" as="geometry" />
        </mxCell>
        <mxCell id="qqsWl-AhTRgnj3V0tEwA-3" style="edgeStyle=orthogonalEdgeStyle;rounded=0;orthogonalLoop=1;jettySize=auto;html=1;entryX=0.575;entryY=1.014;entryDx=0;entryDy=0;entryPerimeter=0;fillColor=#d5e8d4;strokeColor=#82b366;" edge="1" parent="1" source="qqsWl-AhTRgnj3V0tEwA-1" target="FN_75RV-24mMsgmvzP0c-21">
          <mxGeometry relative="1" as="geometry" />
        </mxCell>
      </root>
    </mxGraphModel>
  </diagram>
</mxfile>
